<svg width="8px" height="13px" viewBox="0 0 8 13" version="1.1" xmlns="http://www.w3.org/2000/svg"
>
    <g id="Design" stroke="none" stroke-width="1" fill="none" fill-rule="evenodd">
        <g id="Guideline" transform="translate(-1061.000000, -2216.000000)" fill="#7BC8F5">
            <g id="Group-80" transform="translate(588.000000, 2140.000000)">
                <path
                        d="M482.858561,81.0471464 L477.334988,86.5632754 C477.240694,86.6575687 477.129033,86.7047146 477,86.7047146 C476.870967,86.7047146 476.759306,86.6575687 476.665012,86.5632754 L471.141439,81.0471464 C471.047146,80.9528531 471,80.839951 471,80.7084367 C471,80.5769224 471.047146,80.4640203 471.141439,80.369727 L472.377171,79.1414392 C472.471464,79.0471459 472.583126,79 472.712159,79 C472.841192,79 472.952853,79.0471459 473.047146,79.1414392 L477,83.0942928 L480.952854,79.1414392 C481.047147,79.0471459 481.158808,79 481.287841,79 C481.416874,79 481.528536,79.0471459 481.622829,79.1414392 L482.858561,80.369727 C482.952854,80.4640203 483,80.5769224 483,80.7084367 C483,80.839951 482.952854,80.9528531 482.858561,81.0471464 Z"
                        id="ï¸"
                        transform="translate(477.000000, 82.852357) scale(-1, 1) rotate(90.000000) translate(-477.000000, -82.852357) "></path>
            </g>
        </g>
    </g>
</svg>
