<svg width="8px" height="13px" viewBox="0 0 8 13" version="1.1" xmlns="http://www.w3.org/2000/svg"
>
    <g id="Design" stroke="none" stroke-width="1" fill="none" fill-rule="evenodd">
        <g id="Guideline" transform="translate(-608.000000, -2216.000000)" fill="#7BC8F5">
            <g id="Group-80" transform="translate(588.000000, 2140.000000)">
                <path
                        d="M29.8585608,81.0471464 L24.3349876,86.5632754 C24.2406943,86.6575687 24.1290329,86.7047146 24,86.7047146 C23.8709671,86.7047146 23.7593057,86.6575687 23.6650124,86.5632754 L18.1414392,81.0471464 C18.0471459,80.9528531 18,80.839951 18,80.7084367 C18,80.5769224 18.0471459,80.4640203 18.1414392,80.369727 L19.3771712,79.1414392 C19.4714645,79.0471459 19.5831259,79 19.7121588,79 C19.8411917,79 19.9528531,79.0471459 20.0471464,79.1414392 L24,83.0942928 L27.9528536,79.1414392 C28.0471469,79.0471459 28.1588083,79 28.2878412,79 C28.4168741,79 28.5285355,79.0471459 28.6228288,79.1414392 L29.8585608,80.369727 C29.9528541,80.4640203 30,80.5769224 30,80.7084367 C30,80.839951 29.9528541,80.9528531 29.8585608,81.0471464 Z"
                        id="ï¸-copy"
                        transform="translate(24.000000, 82.852357) rotate(90.000000) translate(-24.000000, -82.852357) "></path>
            </g>
        </g>
    </g>
</svg>
